<mxfile host="Electron" agent="Mozilla/5.0 (Windows NT 10.0; Win64; x64) AppleWebKit/537.36 (KHTML, like Gecko) draw.io/26.0.16 Chrome/132.0.6834.196 Electron/34.2.0 Safari/537.36" version="26.0.16">
  <diagram name="Page-1" id="Dkl5aar6sMd2jpkhC8XY">
    <mxGraphModel dx="1050" dy="621" grid="1" gridSize="10" guides="1" tooltips="1" connect="1" arrows="1" fold="1" page="1" pageScale="1" pageWidth="827" pageHeight="1169" math="0" shadow="0">
      <root>
        <mxCell id="0" />
        <mxCell id="1" parent="0" />
        <mxCell id="F0n5Kn8YBo4fiI-SfPqK-9" value="" style="group" vertex="1" connectable="0" parent="1">
          <mxGeometry x="320" y="240" width="160" height="160" as="geometry" />
        </mxCell>
        <mxCell id="F0n5Kn8YBo4fiI-SfPqK-3" value="" style="ellipse;whiteSpace=wrap;html=1;aspect=fixed;" vertex="1" parent="F0n5Kn8YBo4fiI-SfPqK-9">
          <mxGeometry width="160" height="160" as="geometry" />
        </mxCell>
        <mxCell id="F0n5Kn8YBo4fiI-SfPqK-8" value="CLSA ID" style="text;html=1;align=center;verticalAlign=middle;resizable=0;points=[];autosize=1;strokeColor=none;fillColor=none;" vertex="1" parent="F0n5Kn8YBo4fiI-SfPqK-9">
          <mxGeometry x="45" y="130" width="70" height="30" as="geometry" />
        </mxCell>
        <mxCell id="F0n5Kn8YBo4fiI-SfPqK-2" value="UserID&lt;div&gt;&amp;amp;&lt;/div&gt;&lt;div&gt;Other info&lt;/div&gt;" style="ellipse;whiteSpace=wrap;html=1;aspect=fixed;" vertex="1" parent="1">
          <mxGeometry x="360" y="280" width="80" height="80" as="geometry" />
        </mxCell>
        <mxCell id="F0n5Kn8YBo4fiI-SfPqK-4" value="B64 Encoding" style="text;html=1;align=center;verticalAlign=middle;resizable=0;points=[];autosize=1;strokeColor=none;fillColor=none;" vertex="1" parent="1">
          <mxGeometry x="640" y="128" width="100" height="30" as="geometry" />
        </mxCell>
        <mxCell id="F0n5Kn8YBo4fiI-SfPqK-10" style="edgeStyle=orthogonalEdgeStyle;rounded=0;orthogonalLoop=1;jettySize=auto;html=1;entryX=1;entryY=0.5;entryDx=0;entryDy=0;" edge="1" parent="1" source="F0n5Kn8YBo4fiI-SfPqK-5" target="F0n5Kn8YBo4fiI-SfPqK-3">
          <mxGeometry relative="1" as="geometry" />
        </mxCell>
        <mxCell id="F0n5Kn8YBo4fiI-SfPqK-5" value="TS General Purpose Public Key Encryption" style="text;html=1;align=center;verticalAlign=middle;resizable=0;points=[];autosize=1;strokeColor=none;fillColor=none;" vertex="1" parent="1">
          <mxGeometry x="520" y="305" width="250" height="30" as="geometry" />
        </mxCell>
        <mxCell id="F0n5Kn8YBo4fiI-SfPqK-11" style="edgeStyle=orthogonalEdgeStyle;rounded=0;orthogonalLoop=1;jettySize=auto;html=1;entryX=0.5;entryY=0;entryDx=0;entryDy=0;" edge="1" parent="1" source="F0n5Kn8YBo4fiI-SfPqK-6" target="F0n5Kn8YBo4fiI-SfPqK-2">
          <mxGeometry relative="1" as="geometry" />
        </mxCell>
        <mxCell id="F0n5Kn8YBo4fiI-SfPqK-6" value="CSLA Specific Key Encryption" style="text;html=1;align=center;verticalAlign=middle;resizable=0;points=[];autosize=1;strokeColor=none;fillColor=none;" vertex="1" parent="1">
          <mxGeometry x="550" y="190" width="180" height="30" as="geometry" />
        </mxCell>
        <mxCell id="F0n5Kn8YBo4fiI-SfPqK-7" value="TS = Target Server: The server the user is trying to log into&lt;br&gt;SS = Source Server: The server that owns the account the user is trying to use&lt;br&gt;CSLA = Cross Server Login Attempt" style="text;html=1;align=center;verticalAlign=middle;resizable=0;points=[];autosize=1;strokeColor=none;fillColor=none;" vertex="1" parent="1">
          <mxGeometry x="290" y="33" width="440" height="60" as="geometry" />
        </mxCell>
      </root>
    </mxGraphModel>
  </diagram>
</mxfile>
